<?xml version="1.0" encoding="UTF-8" standalone="no"?>
<!-- Created with Inkscape (http://www.inkscape.org/) -->

<svg
   xmlns:ns0="http://www.iki.fi/pav/software/textext/"
   xmlns:dc="http://purl.org/dc/elements/1.1/"
   xmlns:cc="http://creativecommons.org/ns#"
   xmlns:rdf="http://www.w3.org/1999/02/22-rdf-syntax-ns#"
   xmlns:svg="http://www.w3.org/2000/svg"
   xmlns="http://www.w3.org/2000/svg"
   xmlns:sodipodi="http://sodipodi.sourceforge.net/DTD/sodipodi-0.dtd"
   xmlns:inkscape="http://www.inkscape.org/namespaces/inkscape"
   inkscape:version="0.48.3.1 r9886"
   version="1.1"
   id="svg2"
   height="1052.3622047"
   width="744.09448819"
   sodipodi:docname="texttex_examples.svg">
  <sodipodi:namedview
     id="base"
     pagecolor="#ffffff"
     bordercolor="#666666"
     borderopacity="1.0"
     inkscape:pageopacity="0.0"
     inkscape:pageshadow="2"
     inkscape:zoom="3.6203867"
     inkscape:cx="146.18285"
     inkscape:cy="918.23291"
     inkscape:document-units="px"
     inkscape:current-layer="svg2"
     showgrid="false"
     inkscape:window-width="1215"
     inkscape:window-height="1000"
     inkscape:window-x="65"
     inkscape:window-y="24"
     inkscape:window-maximized="1" />
  <defs
     id="defs4" />
  <metadata
     id="metadata7">
    <rdf:RDF>
      <cc:Work
         rdf:about="">
        <dc:format>image/svg+xml</dc:format>
        <dc:type
           rdf:resource="http://purl.org/dc/dcmitype/StillImage" />
        <dc:title />
      </cc:Work>
    </rdf:RDF>
  </metadata>
  <g
     inkscape:label="Layer 1"
     inkscape:groupmode="layer"
     id="layer1" />
  <g
     style="font-style:normal;font-variant:normal;font-weight:normal;font-stretch:normal;letter-spacing:normal;word-spacing:normal;text-anchor:start;fill:none;stroke:#000000;stroke-linecap:butt;stroke-linejoin:miter;stroke-miterlimit:10.43299961;stroke-opacity:1;stroke-dasharray:none;stroke-dashoffset:0"
     id="content"
     transform="matrix(48,0,0,-48,-11382.857,32068.571)"
     xml:space="preserve"
     stroke-miterlimit="10.433"
     font-style="normal"
     font-variant="normal"
     font-weight="normal"
     font-stretch="normal"
     font-size-adjust="none"
     letter-spacing="normal"
     word-spacing="normal"
     ns0:text="$log(K_{\\rho}^{cox})$"
     ns0:preamble="">










<g
   ns0:preamble=""
   ns0:text="$log(K_{\\rho}^{cox}$\n"
   text-anchor="start"
   word-spacing="normal"
   letter-spacing="normal"
   font-size-adjust="none"
   font-stretch="normal"
   font-weight="normal"
   font-variant="normal"
   font-style="normal"
   fill-opacity="1"
   fill-rule="evenodd"
   fill="none"
   stroke-opacity="1"
   stroke-dashoffset="0"
   stroke-dasharray="none"
   stroke-miterlimit="10.433"
   stroke-linejoin="miter"
   stroke-linecap="butt"
   stroke="black"
   xml:space="preserve"
   transform="matrix(1.000000,0,0,-1.000000,-200.000000,750.000000)"
   id="g3148">
<path
   id="path3150"
   fill="black"
   stroke-width="0"
   d="M226,664.02 L226,664.02 L226,664.02 L226,664.02 L226,664.03 L226,664.03 L226,664.03 L226,664.03 L226,664.04 L226,664.04 L226,664.05 L226,664.05 L225.99,664.05 L225.99,664.06 L225.99,664.06 L225.99,664.07 L225.99,664.07 L225.98,664.08 L225.98,664.08 L225.98,664.09 L225.97,664.09 L225.97,664.1 L225.97,664.1 L225.96,664.1 L225.96,664.1 L225.96,664.11 L225.95,664.11 L225.95,664.11 L225.95,664.11 L225.94,664.11 L225.94,664.12 L225.94,664.12 L225.93,664.12 L225.93,664.12 L225.93,664.12 L225.92,664.12 L225.92,664.12 L225.91,664.12 L225.91,664.13 L225.9,664.13 L225.9,664.13 L225.89,664.13 L225.89,664.13 L225.88,664.13 L225.88,664.13 L225.87,664.13 C225.64,664.13,224.91,664.05,224.66,664.03 C224.58,664.02,224.47,664.01,224.47,663.82 C224.47,663.71,224.57,663.71,224.71,663.71 C225.19,663.71,225.2,663.62,225.2,663.54 L225.17,663.34 L223.92,658.38 C223.89,658.27,223.87,658.2,223.87,658.04 C223.87,657.47,224.31,657.13,224.77,657.13 C225.1,657.13,225.35,657.32,225.52,657.68 C225.7,658.06,225.82,658.64,225.82,658.66 C225.82,658.76,225.73,658.76,225.7,658.76 C225.6,658.76,225.59,658.72,225.56,658.58 C225.39,657.93,225.2,657.34,224.8,657.34 C224.51,657.34,224.51,657.66,224.51,657.8 C224.51,658.04,224.52,658.09,224.57,658.28 Z " />
<path
   id="path3152"
   fill="black"
   stroke-width="0"
   d="M231.27,659.95 L231.27,660.04 L231.26,660.14 L231.25,660.23 L231.24,660.32 L231.22,660.4 L231.2,660.49 L231.18,660.57 L231.15,660.65 L231.12,660.72 L231.08,660.79 L231.04,660.86 L231,660.93 L230.96,661 L230.91,661.06 L230.86,661.12 L230.81,661.17 L230.76,661.23 L230.7,661.28 L230.64,661.32 L230.58,661.37 L230.51,661.41 L230.44,661.44 L230.38,661.48 L230.3,661.51 L230.23,661.54 L230.16,661.56 L230.08,661.58 L230,661.6 L229.92,661.61 L229.84,661.62 L229.76,661.62 L229.68,661.63 C228.35,661.63,227.01,660.22,227.01,658.8 C227.01,657.82,227.68,657.13,228.6,657.13 L228.61,657.34 C228.19,657.34,227.75,657.65,227.75,658.43 C227.75,658.91,228.01,659.99,228.32,660.49 C228.82,661.26,229.39,661.41,229.67,661.41 C230.24,661.41,230.54,660.93,230.54,660.33 C230.54,659.95,230.35,658.9,229.97,658.26 C229.62,657.68,229.07,657.34,228.61,657.34 H228.61 L228.6,657.13 C229.93,657.13,231.27,658.5,231.27,659.95 Z " />
<path
   id="path3154"
   fill="black"
   stroke-width="0"
   d="M236.12,660.98 L236.12,660.99 L236.12,661 L236.13,661.01 L236.13,661.02 L236.13,661.04 L236.14,661.06 L236.14,661.07 L236.14,661.08 L236.14,661.09 L236.14,661.1 L236.15,661.11 L236.15,661.12 L236.15,661.13 L236.15,661.13 L236.15,661.14 L236.15,661.15 L236.15,661.15 L236.15,661.16 C236.15,661.33,236.03,661.43,235.86,661.43 C235.76,661.43,235.49,661.36,235.45,661 C235.27,661.37,234.93,661.63,234.53,661.63 L234.54,661.41 C235.19,661.41,235.33,660.6,235.33,660.55 C235.33,660.5,235.31,660.44,235.3,660.4 L234.83,658.51 C234.77,658.25,234.54,658,234.32,657.81 C234.11,657.63,233.8,657.45,233.51,657.45 C233.01,657.45,232.87,657.97,232.87,658.37 C232.87,658.84,233.15,660.02,233.42,660.52 C233.69,661.01,234.12,661.41,234.54,661.41 L234.53,661.63 C233.39,661.63,232.16,660.23,232.16,658.8 C232.16,657.82,232.77,657.23,233.48,657.23 C234.07,657.23,234.54,657.7,234.64,657.81 L234.65,657.8 C234.44,656.92,234.32,656.51,234.32,656.49 C234.28,656.4,233.94,655.42,232.88,655.42 C232.7,655.42,232.37,655.43,232.09,655.52 C232.39,655.61,232.5,655.86,232.5,656.03 C232.5,656.19,232.39,656.38,232.12,656.38 C231.9,656.38,231.58,656.2,231.58,655.8 C231.58,655.4,231.95,655.2,232.9,655.2 C234.15,655.2,234.87,655.97,235.01,656.57 Z " />
<path
   id="path3156"
   fill="black"
   stroke-width="0"
   d="M239.83,654.85 L239.83,654.86 L239.83,654.86 L239.83,654.86 L239.83,654.87 L239.83,654.87 L239.83,654.87 L239.83,654.88 L239.83,654.88 L239.83,654.88 L239.82,654.89 L239.82,654.89 L239.82,654.9 L239.81,654.9 L239.81,654.91 L239.81,654.91 L239.8,654.92 L239.8,654.93 L239.79,654.93 L239.79,654.94 L239.78,654.94 L239.78,654.95 L239.78,654.95 L239.77,654.95 L239.77,654.96 L239.77,654.96 L239.76,654.97 L239.76,654.97 L239.75,654.98 L239.75,654.98 L239.74,654.99 L239.74,654.99 L239.73,655 L239.72,655.01 L239.72,655.01 L239.71,655.02 L239.71,655.03 L239.7,655.03 L239.69,655.04 L239.69,655.05 L239.68,655.05 L239.67,655.06 L239.66,655.07 C238.42,656.32,238.1,658.2,238.1,659.72 C238.1,661.45,238.48,663.17,239.7,664.42 C239.83,664.54,239.83,664.56,239.83,664.59 C239.83,664.66,239.79,664.68,239.73,664.68 C239.63,664.68,238.74,664.01,238.15,662.75 C237.64,661.66,237.52,660.55,237.52,659.72 C237.52,658.94,237.63,657.74,238.18,656.62 C238.78,655.4,239.63,654.75,239.73,654.75 C239.79,654.75,239.83,654.78,239.83,654.85 Z " />
<path
   id="path3158"
   fill="black"
   stroke-width="0"
   d="M245.48,661.25 L245.48,661.25 L245.48,661.25 L245.47,661.26 L245.47,661.26 L245.47,661.27 L245.47,661.27 L245.47,661.27 L245.47,661.28 L245.46,661.28 L245.46,661.29 L245.46,661.29 L245.46,661.3 L245.45,661.31 L245.45,661.32 L245.45,661.33 L245.44,661.33 L245.44,661.34 L245.44,661.34 L245.44,661.35 L245.44,661.35 L245.43,661.36 L245.43,661.36 L245.43,661.37 L245.43,661.37 L245.43,661.37 L245.43,661.38 L245.43,661.38 L245.43,661.38 L245.43,661.39 C245.43,661.4,245.61,661.54,245.72,661.62 L247.46,662.96 C248.39,663.64,248.78,663.68,249.08,663.71 C249.16,663.72,249.26,663.73,249.26,663.91 C249.26,663.95,249.23,664.02,249.15,664.02 C248.93,664.02,248.68,663.99,248.44,663.99 C248.09,663.99,247.7,664.02,247.34,664.02 C247.27,664.02,247.15,664.02,247.15,663.82 C247.15,663.75,247.2,663.72,247.27,663.71 C247.49,663.69,247.58,663.64,247.58,663.5 C247.58,663.32,247.28,663.1,247.22,663.05 L243.34,660.07 L244.13,663.26 C244.23,663.61,244.24,663.71,244.97,663.71 C245.22,663.71,245.31,663.71,245.31,663.91 C245.31,664,245.23,664.02,245.17,664.02 C244.89,664.02,244.18,663.99,243.9,663.99 C243.61,663.99,242.9,664.02,242.61,664.02 C242.54,664.02,242.41,664.02,242.41,663.83 C242.41,663.71,242.5,663.71,242.7,663.71 C242.83,663.71,243.01,663.7,243.13,663.69 C243.29,663.67,243.35,663.64,243.35,663.53 C243.35,663.49,243.34,663.46,243.31,663.34 L241.98,658.01 C241.88,657.62,241.86,657.54,241.07,657.54 C240.9,657.54,240.79,657.54,240.79,657.35 C240.79,657.23,240.91,657.23,240.94,657.23 C241.22,657.23,241.93,657.27,242.21,657.27 C242.41,657.27,242.63,657.26,242.84,657.26 C243.06,657.26,243.28,657.23,243.49,657.23 C243.56,657.23,243.69,657.23,243.69,657.43 C243.69,657.54,243.6,657.54,243.41,657.54 C243.04,657.54,242.76,657.54,242.76,657.72 C242.76,657.79,242.82,658.01,242.85,658.16 C242.99,658.67,243.12,659.2,243.25,659.72 L244.73,660.87 L245.89,658.2 C246.01,657.93,246.01,657.91,246.01,657.85 C246.01,657.55,245.58,657.54,245.49,657.54 C245.38,657.54,245.27,657.54,245.27,657.34 C245.27,657.23,245.39,657.23,245.41,657.23 C245.81,657.23,246.22,657.27,246.62,657.27 C246.84,657.27,247.38,657.23,247.6,657.23 C247.65,657.23,247.78,657.23,247.78,657.43 C247.78,657.54,247.67,657.54,247.58,657.54 C247.17,657.55,247.04,657.64,246.89,657.99 Z " />
<path
   id="path3160"
   fill="black"
   stroke-width="0"
   d="M252.64,663.51 L252.61,663.51 L252.59,663.5 L252.57,663.5 L252.55,663.49 L252.53,663.48 L252.51,663.48 L252.49,663.47 L252.48,663.46 L252.46,663.45 L252.44,663.44 L252.43,663.43 L252.42,663.41 L252.4,663.4 L252.39,663.39 L252.38,663.38 L252.37,663.36 L252.36,663.35 L252.35,663.33 L252.34,663.32 L252.33,663.3 L252.32,663.29 L252.31,663.27 L252.31,663.26 L252.3,663.24 L252.3,663.23 L252.29,663.21 L252.29,663.2 L252.29,663.18 L252.29,663.17 L252.28,663.15 L252.28,663.14 L252.28,663.12 C252.28,662.94,252.43,662.87,252.55,662.87 C252.71,662.87,252.95,662.98,252.95,663.31 C252.95,663.79,252.41,663.92,252.03,663.92 C250.99,663.92,250.02,662.96,250.02,661.99 C250.02,661.39,250.44,660.78,251.31,660.78 C252.49,660.78,253.04,661.47,253.04,661.57 C253.04,661.61,252.97,661.68,252.92,661.68 C252.88,661.68,252.86,661.67,252.81,661.62 C252.26,660.98,251.45,660.98,251.32,660.98 C250.82,660.98,250.6,661.32,250.6,661.75 C250.6,661.95,250.7,662.71,251.06,663.19 C251.32,663.53,251.68,663.72,252.03,663.72 C252.13,663.72,252.46,663.71,252.64,663.51 Z " />
<path
   id="path3162"
   fill="black"
   stroke-width="0"
   d="M256.85,662.7 L256.84,662.77 L256.84,662.84 L256.83,662.91 L256.82,662.97 L256.81,663.04 L256.79,663.1 L256.77,663.16 L256.75,663.22 L256.72,663.27 L256.69,663.33 L256.66,663.38 L256.63,663.43 L256.59,663.47 L256.55,663.52 L256.51,663.56 L256.47,663.6 L256.43,663.64 L256.38,663.67 L256.33,663.71 L256.28,663.74 L256.23,663.77 L256.18,663.79 L256.13,663.82 L256.07,663.84 L256.01,663.86 L255.96,663.87 L255.9,663.89 L255.84,663.9 L255.77,663.91 L255.71,663.91 L255.65,663.92 L255.59,663.92 L255.58,663.72 C255.96,663.72,256.27,663.47,256.27,662.95 C256.27,662.78,256.19,662.1,255.88,661.61 C255.62,661.2,255.2,660.98,254.85,660.98 H254.85 C254.51,660.98,254.16,661.2,254.16,661.75 C254.16,662.03,254.29,662.72,254.56,663.11 C254.86,663.54,255.26,663.72,255.58,663.72 L255.59,663.92 C254.55,663.92,253.58,662.95,253.58,662 C253.58,661.3,254.09,660.78,254.85,660.78 C255.84,660.78,256.85,661.7,256.85,662.7 Z " />
<path
   id="path3164"
   fill="black"
   stroke-width="0"
   d="M258.82,661.59 L258.81,661.57 L258.8,661.54 L258.79,661.52 L258.78,661.49 L258.77,661.47 L258.76,661.44 L258.75,661.42 L258.73,661.39 L258.72,661.37 L258.7,661.34 L258.69,661.32 L258.67,661.29 L258.65,661.27 L258.63,661.24 L258.61,661.22 L258.59,661.19 L258.57,661.17 L258.55,661.15 L258.53,661.13 L258.5,661.11 L258.48,661.09 L258.46,661.07 L258.43,661.05 L258.4,661.04 L258.37,661.02 L258.35,661.01 L258.32,661 L258.29,660.99 L258.26,660.99 L258.23,660.98 L258.19,660.98 L258.16,660.98 C258.14,660.98,257.93,660.98,257.78,661.07 C258.07,661.16,258.09,661.41,258.09,661.46 C258.09,661.61,257.97,661.71,257.81,661.71 C257.62,661.71,257.42,661.55,257.42,661.29 C257.42,660.94,257.8,660.78,258.15,660.78 C258.47,660.78,258.75,660.98,258.93,661.28 C259.09,660.91,259.48,660.78,259.76,660.78 C260.56,660.78,260.98,661.65,260.98,661.84 C260.98,661.94,260.89,661.94,260.87,661.94 C260.77,661.94,260.77,661.9,260.74,661.82 C260.59,661.34,260.17,660.98,259.78,660.98 C259.5,660.98,259.36,661.16,259.36,661.43 C259.36,661.61,259.52,662.24,259.72,663.01 C259.86,663.55,260.17,663.72,260.4,663.72 C260.42,663.72,260.63,663.72,260.78,663.63 C260.56,663.56,260.47,663.37,260.47,663.24 C260.47,663.09,260.59,662.99,260.75,662.99 C260.91,662.99,261.14,663.12,261.14,663.41 C261.14,663.8,260.7,663.92,260.42,663.92 C260.07,663.92,259.79,663.69,259.64,663.42 C259.51,663.71,259.19,663.92,258.8,663.92 C258.02,663.92,257.58,663.06,257.58,662.85 C257.58,662.76,257.67,662.76,257.69,662.76 C257.78,662.76,257.79,662.79,257.83,662.88 C258,663.42,258.44,663.72,258.78,663.72 C259.01,663.72,259.2,663.6,259.2,663.26 C259.2,663.12,259.11,662.78,259.05,662.54 Z " />
<path
   id="path3166"
   fill="black"
   stroke-width="0"
   d="M249.25,653.65 L249.25,653.64 L249.25,653.63 L249.24,653.63 L249.24,653.62 L249.24,653.61 L249.24,653.6 L249.24,653.59 L249.23,653.59 L249.23,653.58 L249.23,653.57 L249.23,653.57 L249.23,653.56 L249.23,653.56 L249.23,653.55 L249.23,653.55 L249.23,653.54 L249.23,653.54 L249.23,653.53 L249.22,653.53 L249.22,653.53 L249.22,653.52 L249.22,653.52 L249.22,653.52 L249.22,653.52 L249.22,653.52 L249.22,653.51 L249.22,653.51 L249.22,653.51 L249.22,653.51 L249.22,653.51 L249.22,653.51 L249.22,653.51 C249.22,653.35,249.35,653.28,249.46,653.28 C249.71,653.28,249.77,653.49,249.82,653.72 C249.91,654.08,250.11,654.87,250.18,655.13 C250.24,655.03,250.46,654.7,250.94,654.7 L250.94,654.9 C250.42,654.9,250.27,655.41,250.27,655.5 C250.27,655.52,250.31,655.67,250.33,655.75 C250.54,656.61,250.58,656.77,250.78,657.07 C251.03,657.44,251.38,657.64,251.66,657.64 C251.95,657.64,252.22,657.44,252.22,656.94 C252.22,656.62,252.04,655.85,251.82,655.5 C251.5,655.01,251.15,654.9,250.94,654.9 H250.94 L250.94,654.7 C251.84,654.7,252.78,655.65,252.78,656.66 C252.78,657.4,252.29,657.84,251.68,657.84 C250.99,657.84,250.15,657.24,249.91,656.26 Z " />
</g>
</g>  <g
     id="g3198"
     transform="matrix(1.000000,0,0,-1.000000,-200.000000,750.000000)"
     xml:space="preserve"
     stroke="black"
     stroke-linecap="butt"
     stroke-linejoin="miter"
     stroke-miterlimit="10.433"
     stroke-dasharray="none"
     stroke-dashoffset="0"
     stroke-opacity="1"
     fill="none"
     fill-rule="evenodd"
     fill-opacity="1"
     font-style="normal"
     font-variant="normal"
     font-weight="normal"
     font-stretch="normal"
     font-size-adjust="none"
     letter-spacing="normal"
     word-spacing="normal"
     text-anchor="start"
     ns0:text="$log(\\overline{Re_b})$"
     ns0:preamble="">
<path
   d="M226,664.02 L226,664.02 L226,664.02 L226,664.02 L226,664.03 L226,664.03 L226,664.03 L226,664.03 L226,664.04 L226,664.04 L226,664.05 L226,664.05 L225.99,664.05 L225.99,664.06 L225.99,664.06 L225.99,664.07 L225.99,664.07 L225.98,664.08 L225.98,664.08 L225.98,664.09 L225.97,664.09 L225.97,664.1 L225.97,664.1 L225.96,664.1 L225.96,664.1 L225.96,664.11 L225.95,664.11 L225.95,664.11 L225.95,664.11 L225.94,664.11 L225.94,664.12 L225.94,664.12 L225.93,664.12 L225.93,664.12 L225.93,664.12 L225.92,664.12 L225.92,664.12 L225.91,664.12 L225.91,664.13 L225.9,664.13 L225.9,664.13 L225.89,664.13 L225.89,664.13 L225.88,664.13 L225.88,664.13 L225.87,664.13 C225.64,664.13,224.91,664.05,224.66,664.03 C224.58,664.02,224.47,664.01,224.47,663.82 C224.47,663.71,224.57,663.71,224.71,663.71 C225.19,663.71,225.2,663.62,225.2,663.54 L225.17,663.34 L223.92,658.38 C223.89,658.27,223.87,658.2,223.87,658.04 C223.87,657.47,224.31,657.13,224.77,657.13 C225.1,657.13,225.35,657.32,225.52,657.68 C225.7,658.06,225.82,658.64,225.82,658.66 C225.82,658.76,225.73,658.76,225.7,658.76 C225.6,658.76,225.59,658.72,225.56,658.58 C225.39,657.93,225.2,657.34,224.8,657.34 C224.51,657.34,224.51,657.66,224.51,657.8 C224.51,658.04,224.52,658.09,224.57,658.28 Z "
   stroke-width="0"
   fill="black"
   id="path3200" />
<path
   d="M231.27,659.95 L231.27,660.04 L231.26,660.14 L231.25,660.23 L231.24,660.32 L231.22,660.4 L231.2,660.49 L231.18,660.57 L231.15,660.65 L231.12,660.72 L231.08,660.79 L231.04,660.86 L231,660.93 L230.96,661 L230.91,661.06 L230.86,661.12 L230.81,661.17 L230.76,661.23 L230.7,661.28 L230.64,661.32 L230.58,661.37 L230.51,661.41 L230.44,661.44 L230.38,661.48 L230.3,661.51 L230.23,661.54 L230.16,661.56 L230.08,661.58 L230,661.6 L229.92,661.61 L229.84,661.62 L229.76,661.62 L229.68,661.63 C228.35,661.63,227.01,660.22,227.01,658.8 C227.01,657.82,227.68,657.13,228.6,657.13 L228.61,657.34 C228.19,657.34,227.75,657.65,227.75,658.43 C227.75,658.91,228.01,659.99,228.32,660.49 C228.82,661.26,229.39,661.41,229.67,661.41 C230.24,661.41,230.54,660.93,230.54,660.33 C230.54,659.95,230.35,658.9,229.97,658.26 C229.62,657.68,229.07,657.34,228.61,657.34 H228.61 L228.6,657.13 C229.93,657.13,231.27,658.5,231.27,659.95 Z "
   stroke-width="0"
   fill="black"
   id="path3202" />
<path
   d="M236.12,660.98 L236.12,660.99 L236.12,661 L236.13,661.01 L236.13,661.02 L236.13,661.04 L236.14,661.06 L236.14,661.07 L236.14,661.08 L236.14,661.09 L236.14,661.1 L236.15,661.11 L236.15,661.12 L236.15,661.13 L236.15,661.13 L236.15,661.14 L236.15,661.15 L236.15,661.15 L236.15,661.16 C236.15,661.33,236.03,661.43,235.86,661.43 C235.76,661.43,235.49,661.36,235.45,661 C235.27,661.37,234.93,661.63,234.53,661.63 L234.54,661.41 C235.19,661.41,235.33,660.6,235.33,660.55 C235.33,660.5,235.31,660.44,235.3,660.4 L234.83,658.51 C234.77,658.25,234.54,658,234.32,657.81 C234.11,657.63,233.8,657.45,233.51,657.45 C233.01,657.45,232.87,657.97,232.87,658.37 C232.87,658.84,233.15,660.02,233.42,660.52 C233.69,661.01,234.12,661.41,234.54,661.41 L234.53,661.63 C233.39,661.63,232.16,660.23,232.16,658.8 C232.16,657.82,232.77,657.23,233.48,657.23 C234.07,657.23,234.54,657.7,234.64,657.81 L234.65,657.8 C234.44,656.92,234.32,656.51,234.32,656.49 C234.28,656.4,233.94,655.42,232.88,655.42 C232.7,655.42,232.37,655.43,232.09,655.52 C232.39,655.61,232.5,655.86,232.5,656.03 C232.5,656.19,232.39,656.38,232.12,656.38 C231.9,656.38,231.58,656.2,231.58,655.8 C231.58,655.4,231.95,655.2,232.9,655.2 C234.15,655.2,234.87,655.97,235.01,656.57 Z "
   stroke-width="0"
   fill="black"
   id="path3204" />
<path
   d="M239.83,654.85 L239.83,654.86 L239.83,654.86 L239.83,654.86 L239.83,654.87 L239.83,654.87 L239.83,654.87 L239.83,654.88 L239.83,654.88 L239.83,654.88 L239.82,654.89 L239.82,654.89 L239.82,654.9 L239.81,654.9 L239.81,654.91 L239.81,654.91 L239.8,654.92 L239.8,654.93 L239.79,654.93 L239.79,654.94 L239.78,654.94 L239.78,654.95 L239.78,654.95 L239.77,654.95 L239.77,654.96 L239.77,654.96 L239.76,654.97 L239.76,654.97 L239.75,654.98 L239.75,654.98 L239.74,654.99 L239.74,654.99 L239.73,655 L239.72,655.01 L239.72,655.01 L239.71,655.02 L239.71,655.03 L239.7,655.03 L239.69,655.04 L239.69,655.05 L239.68,655.05 L239.67,655.06 L239.66,655.07 C238.42,656.32,238.1,658.2,238.1,659.72 C238.1,661.45,238.48,663.17,239.7,664.42 C239.83,664.54,239.83,664.56,239.83,664.59 C239.83,664.66,239.79,664.68,239.73,664.68 C239.63,664.68,238.74,664.01,238.15,662.75 C237.64,661.66,237.52,660.55,237.52,659.72 C237.52,658.94,237.63,657.74,238.18,656.62 C238.78,655.4,239.63,654.75,239.73,654.75 C239.79,654.75,239.83,654.78,239.83,654.85 Z "
   stroke-width="0"
   fill="black"
   id="path3206" />
<line
   x1="240.41"
   y1="665.44"
   x2="256.7"
   y2="665.44"
   stroke-width="0.398"
   id="line3208" />
<path
   d="M245.58,660.61 L245.67,660.63 L245.77,660.66 L245.86,660.69 L245.96,660.72 L246.06,660.75 L246.15,660.78 L246.25,660.82 L246.34,660.86 L246.44,660.91 L246.53,660.95 L246.62,661 L246.71,661.05 L246.8,661.1 L246.89,661.16 L246.97,661.22 L247.05,661.28 L247.13,661.34 L247.2,661.4 L247.27,661.47 L247.34,661.54 L247.4,661.61 L247.46,661.68 L247.52,661.76 L247.57,661.84 L247.61,661.92 L247.65,662 L247.68,662.08 L247.71,662.17 L247.74,662.26 L247.75,662.35 L247.76,662.44 L247.77,662.53 C247.77,663.38,246.87,664.02,245.57,664.02 H242.73 C242.53,664.02,242.44,664.02,242.44,663.82 C242.44,663.71,242.53,663.71,242.72,663.71 C242.74,663.71,242.93,663.71,243.1,663.69 C243.28,663.67,243.37,663.66,243.37,663.53 C243.37,663.49,243.36,663.46,243.33,663.34 L242,658.01 C241.9,657.62,241.88,657.54,241.09,657.54 C240.91,657.54,240.82,657.54,240.82,657.34 C240.82,657.23,240.94,657.23,240.96,657.23 C241.24,657.23,241.94,657.27,242.21,657.27 C242.49,657.27,243.2,657.23,243.48,657.23 C243.56,657.23,243.68,657.23,243.68,657.43 C243.68,657.54,243.59,657.54,243.4,657.54 C243.03,657.54,242.75,657.54,242.75,657.72 C242.75,657.78,242.77,657.83,242.78,657.89 L243.44,660.52 H244.62 L244.61,660.74 H243.5 L244.15,663.33 C244.21,663.57,244.24,663.67,244.42,663.7 C244.51,663.71,244.83,663.71,245.03,663.71 C245.74,663.71,246.84,663.71,246.84,662.73 C246.84,662.39,246.68,661.71,246.29,661.32 C246.04,661.06,245.51,660.74,244.61,660.74 L244.62,660.52 C245.53,660.52,245.71,659.97,245.71,659.62 C245.71,659.47,245.63,659.16,245.57,658.93 C245.5,658.66,245.41,658.29,245.41,658.09 C245.41,657.02,246.6,657.02,246.73,657.02 C247.58,657.02,247.93,658.02,247.93,658.16 C247.93,658.28,247.82,658.28,247.81,658.28 C247.72,658.28,247.7,658.21,247.68,658.14 C247.43,657.4,247,657.23,246.77,657.23 C246.44,657.23,246.37,657.45,246.37,657.84 C246.37,658.15,246.43,658.66,246.47,658.97 C246.49,659.11,246.51,659.3,246.51,659.44 C246.51,660.21,245.85,660.51,245.58,660.61 Z "
   stroke-width="0"
   fill="black"
   id="path3210" />
<path
   d="M249.92,659.53 L249.95,659.53 L249.98,659.53 L250.01,659.53 L250.05,659.53 L250.08,659.53 L250.12,659.53 L250.17,659.53 L250.21,659.54 L250.25,659.54 L250.3,659.54 L250.35,659.54 L250.4,659.55 L250.45,659.55 L250.5,659.56 L250.6,659.57 L250.71,659.58 L250.82,659.59 L250.93,659.61 L251.03,659.63 L251.14,659.66 L251.19,659.67 L251.24,659.69 L251.3,659.7 L251.35,659.72 L251.39,659.74 L251.44,659.76 C252.14,660.06,252.19,660.64,252.19,660.78 C252.19,661.22,251.81,661.63,251.12,661.63 V661.41 C251.59,661.41,251.86,661.12,251.86,660.78 C251.86,659.75,250.27,659.75,249.86,659.75 H249.45 C249.84,661.26,250.86,661.41,251.12,661.41 V661.63 C250.02,661.63,248.52,660.66,248.52,658.92 C248.52,657.91,249.1,657.13,250.08,657.13 C251.5,657.13,252.34,658.18,252.34,658.3 C252.34,658.36,252.28,658.43,252.22,658.43 C252.17,658.43,252.15,658.41,252.09,658.33 C251.3,657.34,250.22,657.34,250.1,657.34 C249.32,657.34,249.23,658.18,249.23,658.5 C249.23,658.62,249.24,658.92,249.39,659.53 Z "
   stroke-width="0"
   fill="black"
   id="path3212" />
<path
   d="M254.53,660.36 L254.53,660.36 L254.53,660.36 L254.53,660.36 L254.53,660.36 L254.53,660.36 L254.54,660.36 L254.54,660.37 L254.54,660.37 L254.54,660.37 L254.54,660.37 L254.54,660.38 L254.54,660.38 L254.54,660.38 L254.54,660.39 L254.54,660.39 L254.54,660.4 L254.55,660.4 L254.55,660.41 L254.55,660.42 L254.55,660.42 L254.55,660.43 L254.55,660.43 L254.55,660.43 L254.55,660.44 L254.56,660.44 L254.56,660.45 L254.56,660.45 L254.56,660.45 L254.56,660.46 L254.56,660.46 L254.56,660.46 L254.56,660.46 L254.56,660.46 L254.56,660.46 L254.56,660.47 L254.56,660.47 L254.56,660.47 L254.56,660.47 L254.56,660.47 L254.56,660.47 L254.56,660.47 C254.56,660.5,254.53,660.57,254.45,660.57 C254.31,660.57,253.73,660.51,253.56,660.5 C253.5,660.49,253.4,660.48,253.4,660.34 C253.4,660.24,253.5,660.24,253.59,660.24 C253.92,660.24,253.92,660.19,253.92,660.14 C253.92,660.09,253.85,659.81,253.81,659.65 L253.65,659.01 C253.59,658.77,253.2,657.25,253.19,657.16 C253.15,656.99,253.15,656.9,253.15,656.82 C253.15,656.12,253.6,655.67,254.18,655.67 L254.18,655.87 C253.84,655.87,253.65,656.16,253.65,656.58 C253.65,656.83,253.71,657.07,253.91,657.85 C253.95,657.99,253.95,658,254.08,658.15 C254.35,658.46,254.66,658.61,254.91,658.61 C255.18,658.61,255.42,658.41,255.42,657.94 C255.42,657.65,255.26,656.94,255.05,656.54 C254.89,656.2,254.54,655.87,254.18,655.87 H254.18 L254.18,655.67 C255.05,655.67,255.97,656.62,255.97,657.65 C255.97,658.46,255.41,658.81,254.93,658.81 C254.57,658.81,254.26,658.61,254.05,658.42 Z "
   stroke-width="0"
   fill="black"
   id="path3214" />
<path
   d="M259.57,659.72 L259.57,659.79 L259.57,659.87 L259.57,659.95 L259.57,660.03 L259.56,660.2 L259.55,660.37 L259.53,660.55 L259.51,660.74 L259.48,660.94 L259.45,661.14 L259.41,661.34 L259.36,661.55 L259.31,661.76 L259.25,661.97 L259.18,662.18 L259.1,662.39 L259.06,662.5 L259.01,662.61 L258.97,662.71 L258.92,662.82 C258.32,664.04,257.46,664.68,257.36,664.68 C257.3,664.68,257.26,664.65,257.26,664.59 C257.26,664.56,257.26,664.54,257.45,664.36 C258.43,663.37,258.99,661.79,258.99,659.72 C258.99,658.02,258.63,656.27,257.39,655.02 C257.26,654.9,257.26,654.88,257.26,654.85 C257.26,654.79,257.3,654.75,257.36,654.75 C257.46,654.75,258.36,655.43,258.94,656.69 C259.45,657.78,259.57,658.88,259.57,659.72 Z "
   stroke-width="0"
   fill="black"
   id="path3216" />
</g>  <g
     ns0:preamble=""
     ns0:text="$\\overline{\\chi}$"
     word-spacing="normal"
     letter-spacing="normal"
     font-size-adjust="none"
     font-stretch="normal"
     font-weight="normal"
     font-variant="normal"
     font-style="normal"
     stroke-miterlimit="10.433"
     xml:space="preserve"
     transform="matrix(1,0,0,-1,-127.63204,802.7568)"
     id="g3486"
     style="font-style:normal;font-variant:normal;font-weight:normal;font-stretch:normal;letter-spacing:normal;word-spacing:normal;text-anchor:start;fill:none;stroke:#000000;stroke-linecap:butt;stroke-linejoin:miter;stroke-miterlimit:10.43299961;stroke-opacity:1;stroke-dasharray:none;stroke-dashoffset:0">


</g>  <g
     style="font-style:normal;font-variant:normal;font-weight:normal;font-stretch:normal;letter-spacing:normal;word-spacing:normal;text-anchor:start;fill:none;stroke:#000000;stroke-linecap:butt;stroke-linejoin:miter;stroke-miterlimit:10.43299961;stroke-opacity:1;stroke-dasharray:none;stroke-dashoffset:0"
     id="g3587"
     transform="matrix(1,0,0,-1,-203.03835,835.90243)"
     xml:space="preserve"
     stroke-miterlimit="10.433"
     font-style="normal"
     font-variant="normal"
     font-weight="normal"
     font-stretch="normal"
     font-size-adjust="none"
     letter-spacing="normal"
     word-spacing="normal"
     ns0:text="$log(\\overline{\\chi})$"
     ns0:preamble="">
<path
   style="fill:#000000;stroke-width:0"
   inkscape:connector-curvature="0"
   d="m 226,664.02 0,0 0,0 0,0 0,0.01 0,0 0,0 0,0 0,0.01 0,0 0,0.01 0,0 -0.01,0 0,0.01 0,0 0,0.01 0,0 -0.01,0.01 0,0 0,0.01 -0.01,0 0,0.01 0,0 -0.01,0 0,0 0,0.01 -0.01,0 0,0 0,0 -0.01,0 0,0.01 0,0 -0.01,0 0,0 0,0 -0.01,0 0,0 -0.01,0 0,0.01 -0.01,0 0,0 -0.01,0 0,0 -0.01,0 0,0 -0.01,0 c -0.23,0 -0.96,-0.08 -1.21,-0.1 -0.08,-0.01 -0.19,-0.02 -0.19,-0.21 0,-0.11 0.1,-0.11 0.24,-0.11 0.48,0 0.49,-0.09 0.49,-0.17 l -0.03,-0.2 -1.25,-4.96 c -0.03,-0.11 -0.05,-0.18 -0.05,-0.34 0,-0.57 0.44,-0.91 0.9,-0.91 0.33,0 0.58,0.19 0.75,0.55 0.18,0.38 0.3,0.96 0.3,0.98 0,0.1 -0.09,0.1 -0.12,0.1 -0.1,0 -0.11,-0.04 -0.14,-0.18 -0.17,-0.65 -0.36,-1.24 -0.76,-1.24 -0.29,0 -0.29,0.32 -0.29,0.46 0,0.24 0.01,0.29 0.06,0.48 z"
   id="path3589" />
<path
   style="fill:#000000;stroke-width:0"
   inkscape:connector-curvature="0"
   d="m 231.27,659.95 0,0.09 -0.01,0.1 -0.01,0.09 -0.01,0.09 -0.02,0.08 -0.02,0.09 -0.02,0.08 -0.03,0.08 -0.03,0.07 -0.04,0.07 -0.04,0.07 -0.04,0.07 -0.04,0.07 -0.05,0.06 -0.05,0.06 -0.05,0.05 -0.05,0.06 -0.06,0.05 -0.06,0.04 -0.06,0.05 -0.07,0.04 -0.07,0.03 -0.06,0.04 -0.08,0.03 -0.07,0.03 -0.07,0.02 -0.08,0.02 -0.08,0.02 -0.08,0.01 -0.08,0.01 -0.08,0 -0.08,0.01 c -1.33,0 -2.67,-1.41 -2.67,-2.83 0,-0.98 0.67,-1.67 1.59,-1.67 l 0.01,0.21 c -0.42,0 -0.86,0.31 -0.86,1.09 0,0.48 0.26,1.56 0.57,2.06 0.5,0.77 1.07,0.92 1.35,0.92 0.57,0 0.87,-0.48 0.87,-1.08 0,-0.38 -0.19,-1.43 -0.57,-2.07 -0.35,-0.58 -0.9,-0.92 -1.36,-0.92 h 0 l -0.01,-0.21 c 1.33,0 2.67,1.37 2.67,2.82 z"
   id="path3591" />
<path
   style="fill:#000000;stroke-width:0"
   inkscape:connector-curvature="0"
   d="m 236.12,660.98 0,0.01 0,0.01 0.01,0.01 0,0.01 0,0.02 0.01,0.02 0,0.01 0,0.01 0,0.01 0,0.01 0.01,0.01 0,0.01 0,0.01 0,0 0,0.01 0,0.01 0,0 0,0.01 c 0,0.17 -0.12,0.27 -0.29,0.27 -0.1,0 -0.37,-0.07 -0.41,-0.43 -0.18,0.37 -0.52,0.63 -0.92,0.63 l 0.01,-0.22 c 0.65,0 0.79,-0.81 0.79,-0.86 0,-0.05 -0.02,-0.11 -0.03,-0.15 l -0.47,-1.89 c -0.06,-0.26 -0.29,-0.51 -0.51,-0.7 -0.21,-0.18 -0.52,-0.36 -0.81,-0.36 -0.5,0 -0.64,0.52 -0.64,0.92 0,0.47 0.28,1.65 0.55,2.15 0.27,0.49 0.7,0.89 1.12,0.89 l -0.01,0.22 c -1.14,0 -2.37,-1.4 -2.37,-2.83 0,-0.98 0.61,-1.57 1.32,-1.57 0.59,0 1.06,0.47 1.16,0.58 l 0.01,-0.01 c -0.21,-0.88 -0.33,-1.29 -0.33,-1.31 -0.04,-0.09 -0.38,-1.07 -1.44,-1.07 -0.18,0 -0.51,0.01 -0.79,0.1 0.3,0.09 0.41,0.34 0.41,0.51 0,0.16 -0.11,0.35 -0.38,0.35 -0.22,0 -0.54,-0.18 -0.54,-0.58 0,-0.4 0.37,-0.6 1.32,-0.6 1.25,0 1.97,0.77 2.11,1.37 z"
   id="path3593" />
<path
   style="fill:#000000;stroke-width:0"
   inkscape:connector-curvature="0"
   d="m 239.83,654.85 0,0.01 0,0 0,0 0,0.01 0,0 0,0 0,0.01 0,0 0,0 -0.01,0.01 0,0 0,0.01 -0.01,0 0,0.01 0,0 -0.01,0.01 0,0.01 -0.01,0 0,0.01 -0.01,0 0,0.01 0,0 -0.01,0 0,0.01 0,0 -0.01,0.01 0,0 -0.01,0.01 0,0 -0.01,0.01 0,0 -0.01,0.01 -0.01,0.01 0,0 -0.01,0.01 0,0.01 -0.01,0 -0.01,0.01 0,0.01 -0.01,0 -0.01,0.01 -0.01,0.01 c -1.24,1.25 -1.56,3.13 -1.56,4.65 0,1.73 0.38,3.45 1.6,4.7 0.13,0.12 0.13,0.14 0.13,0.17 0,0.07 -0.04,0.09 -0.1,0.09 -0.1,0 -0.99,-0.67 -1.58,-1.93 -0.51,-1.09 -0.63,-2.2 -0.63,-3.03 0,-0.78 0.11,-1.98 0.66,-3.1 0.6,-1.22 1.45,-1.87 1.55,-1.87 0.06,0 0.1,0.03 0.1,0.1 z"
   id="path3595" />
<line
   style="stroke-width:0.398"
   x1="240.41"
   y1="662.91998"
   x2="246.64999"
   y2="662.91998"
   id="line3597" />
<path
   style="fill:#000000;stroke-width:0"
   inkscape:connector-curvature="0"
   d="m 246.21,661.24 0.01,0 0,0.01 0.01,0 0,0.01 0.01,0 0,0.01 0.01,0 0,0.01 0,0 0.01,0 0,0.01 0.01,0 0,0 0,0.01 0,0 0.01,0.01 0,0 0,0 0.01,0 0,0.01 0,0 0.01,0.01 0,0 0,0.01 0.01,0 0,0.01 0,0 0,0.01 0.01,0 0,0 0,0.01 0,0 0,0 0,0 0,0.01 0,0 0,0.01 0,0 0,0.01 c 0,0.06 -0.04,0.12 -0.12,0.12 -0.05,0 -0.1,-0.05 -0.16,-0.12 l -2.27,-2.54 c -0.4,1.27 -0.48,1.51 -0.71,2.04 -0.11,0.23 -0.33,0.73 -1.2,0.73 -0.58,0 -0.84,-0.52 -0.84,-0.66 0,-0.01 0,-0.1 0.12,-0.1 0.09,0 0.11,0.06 0.13,0.11 0.15,0.39 0.47,0.43 0.53,0.43 0.3,0 0.59,-0.76 0.76,-1.19 0.32,-0.79 0.64,-1.94 0.64,-1.97 0,-0.01 0,-0.03 -0.08,-0.11 l -2.29,-2.55 c -0.11,-0.11 -0.11,-0.13 -0.11,-0.16 0,-0.06 0.06,-0.12 0.12,-0.12 0.07,0 0.12,0.07 0.16,0.11 l 2.28,2.55 c 0.32,-1.03 0.44,-1.42 0.68,-1.98 0.13,-0.29 0.34,-0.79 1.23,-0.79 0.58,0 0.85,0.52 0.85,0.64 0,0.05 -0.03,0.11 -0.12,0.11 -0.1,0 -0.11,-0.04 -0.14,-0.14 -0.09,-0.23 -0.34,-0.39 -0.53,-0.39 -0.51,0 -1.18,2.4 -1.4,3.17 z"
   id="path3599" />
<path
   style="fill:#000000;stroke-width:0"
   inkscape:connector-curvature="0"
   d="m 249.52,659.72 0,0.07 0,0.08 0,0.08 0,0.08 -0.01,0.17 -0.01,0.17 -0.02,0.18 -0.02,0.19 -0.03,0.2 -0.03,0.2 -0.04,0.2 -0.05,0.21 -0.05,0.21 -0.06,0.21 -0.07,0.21 -0.08,0.21 -0.04,0.11 -0.05,0.11 -0.04,0.1 -0.05,0.11 c -0.6,1.22 -1.46,1.86 -1.56,1.86 -0.06,0 -0.1,-0.03 -0.1,-0.09 0,-0.03 0,-0.05 0.19,-0.23 0.98,-0.99 1.55,-2.57 1.55,-4.64 0,-1.7 -0.37,-3.45 -1.61,-4.7 -0.13,-0.12 -0.13,-0.14 -0.13,-0.17 0,-0.06 0.04,-0.1 0.1,-0.1 0.1,0 1,0.68 1.59,1.94 0.5,1.09 0.62,2.19 0.62,3.03 z"
   id="path3601" />
</g>  <g
     ns0:preamble=""
     ns0:text="$log(\\overline{\\varepsilon})$"
     word-spacing="normal"
     letter-spacing="normal"
     font-size-adjust="none"
     font-stretch="normal"
     font-weight="normal"
     font-variant="normal"
     font-style="normal"
     stroke-miterlimit="10.433"
     xml:space="preserve"
     transform="matrix(1,0,0,-1,-201.65728,853.85631)"
     id="g3711"
     style="font-style:normal;font-variant:normal;font-weight:normal;font-stretch:normal;letter-spacing:normal;word-spacing:normal;text-anchor:start;fill:none;stroke:#000000;stroke-linecap:butt;stroke-linejoin:miter;stroke-miterlimit:10.43299961;stroke-opacity:1;stroke-dasharray:none;stroke-dashoffset:0">
<path
   id="path3713"
   d="m 226,664.02 0,0 0,0 0,0 0,0.01 0,0 0,0 0,0 0,0.01 0,0 0,0.01 0,0 -0.01,0 0,0.01 0,0 0,0.01 0,0 -0.01,0.01 0,0 0,0.01 -0.01,0 0,0.01 0,0 -0.01,0 0,0 0,0.01 -0.01,0 0,0 0,0 -0.01,0 0,0.01 0,0 -0.01,0 0,0 0,0 -0.01,0 0,0 -0.01,0 0,0.01 -0.01,0 0,0 -0.01,0 0,0 -0.01,0 0,0 -0.01,0 c -0.23,0 -0.96,-0.08 -1.21,-0.1 -0.08,-0.01 -0.19,-0.02 -0.19,-0.21 0,-0.11 0.1,-0.11 0.24,-0.11 0.48,0 0.49,-0.09 0.49,-0.17 l -0.03,-0.2 -1.25,-4.96 c -0.03,-0.11 -0.05,-0.18 -0.05,-0.34 0,-0.57 0.44,-0.91 0.9,-0.91 0.33,0 0.58,0.19 0.75,0.55 0.18,0.38 0.3,0.96 0.3,0.98 0,0.1 -0.09,0.1 -0.12,0.1 -0.1,0 -0.11,-0.04 -0.14,-0.18 -0.17,-0.65 -0.36,-1.24 -0.76,-1.24 -0.29,0 -0.29,0.32 -0.29,0.46 0,0.24 0.01,0.29 0.06,0.48 z"
   inkscape:connector-curvature="0"
   style="fill:#000000;stroke-width:0" />
<path
   id="path3715"
   d="m 231.27,659.95 0,0.09 -0.01,0.1 -0.01,0.09 -0.01,0.09 -0.02,0.08 -0.02,0.09 -0.02,0.08 -0.03,0.08 -0.03,0.07 -0.04,0.07 -0.04,0.07 -0.04,0.07 -0.04,0.07 -0.05,0.06 -0.05,0.06 -0.05,0.05 -0.05,0.06 -0.06,0.05 -0.06,0.04 -0.06,0.05 -0.07,0.04 -0.07,0.03 -0.06,0.04 -0.08,0.03 -0.07,0.03 -0.07,0.02 -0.08,0.02 -0.08,0.02 -0.08,0.01 -0.08,0.01 -0.08,0 -0.08,0.01 c -1.33,0 -2.67,-1.41 -2.67,-2.83 0,-0.98 0.67,-1.67 1.59,-1.67 l 0.01,0.21 c -0.42,0 -0.86,0.31 -0.86,1.09 0,0.48 0.26,1.56 0.57,2.06 0.5,0.77 1.07,0.92 1.35,0.92 0.57,0 0.87,-0.48 0.87,-1.08 0,-0.38 -0.19,-1.43 -0.57,-2.07 -0.35,-0.58 -0.9,-0.92 -1.36,-0.92 h 0 l -0.01,-0.21 c 1.33,0 2.67,1.37 2.67,2.82 z"
   inkscape:connector-curvature="0"
   style="fill:#000000;stroke-width:0" />
<path
   id="path3717"
   d="m 236.12,660.98 0,0.01 0,0.01 0.01,0.01 0,0.01 0,0.02 0.01,0.02 0,0.01 0,0.01 0,0.01 0,0.01 0.01,0.01 0,0.01 0,0.01 0,0 0,0.01 0,0.01 0,0 0,0.01 c 0,0.17 -0.12,0.27 -0.29,0.27 -0.1,0 -0.37,-0.07 -0.41,-0.43 -0.18,0.37 -0.52,0.63 -0.92,0.63 l 0.01,-0.22 c 0.65,0 0.79,-0.81 0.79,-0.86 0,-0.05 -0.02,-0.11 -0.03,-0.15 l -0.47,-1.89 c -0.06,-0.26 -0.29,-0.51 -0.51,-0.7 -0.21,-0.18 -0.52,-0.36 -0.81,-0.36 -0.5,0 -0.64,0.52 -0.64,0.92 0,0.47 0.28,1.65 0.55,2.15 0.27,0.49 0.7,0.89 1.12,0.89 l -0.01,0.22 c -1.14,0 -2.37,-1.4 -2.37,-2.83 0,-0.98 0.61,-1.57 1.32,-1.57 0.59,0 1.06,0.47 1.16,0.58 l 0.01,-0.01 c -0.21,-0.88 -0.33,-1.29 -0.33,-1.31 -0.04,-0.09 -0.38,-1.07 -1.44,-1.07 -0.18,0 -0.51,0.01 -0.79,0.1 0.3,0.09 0.41,0.34 0.41,0.51 0,0.16 -0.11,0.35 -0.38,0.35 -0.22,0 -0.54,-0.18 -0.54,-0.58 0,-0.4 0.37,-0.6 1.32,-0.6 1.25,0 1.97,0.77 2.11,1.37 z"
   inkscape:connector-curvature="0"
   style="fill:#000000;stroke-width:0" />
<path
   id="path3719"
   d="m 239.83,654.85 0,0.01 0,0 0,0 0,0.01 0,0 0,0 0,0.01 0,0 0,0 -0.01,0.01 0,0 0,0.01 -0.01,0 0,0.01 0,0 -0.01,0.01 0,0.01 -0.01,0 0,0.01 -0.01,0 0,0.01 0,0 -0.01,0 0,0.01 0,0 -0.01,0.01 0,0 -0.01,0.01 0,0 -0.01,0.01 0,0 -0.01,0.01 -0.01,0.01 0,0 -0.01,0.01 0,0.01 -0.01,0 -0.01,0.01 0,0.01 -0.01,0 -0.01,0.01 -0.01,0.01 c -1.24,1.25 -1.56,3.13 -1.56,4.65 0,1.73 0.38,3.45 1.6,4.7 0.13,0.12 0.13,0.14 0.13,0.17 0,0.07 -0.04,0.09 -0.1,0.09 -0.1,0 -0.99,-0.67 -1.58,-1.93 -0.51,-1.09 -0.63,-2.2 -0.63,-3.03 0,-0.78 0.11,-1.98 0.66,-3.1 0.6,-1.22 1.45,-1.87 1.55,-1.87 0.06,0 0.1,0.03 0.1,0.1 z"
   inkscape:connector-curvature="0"
   style="fill:#000000;stroke-width:0" />
<line
   id="line3721"
   y2="662.91998"
   x2="245.06"
   y1="662.91998"
   x1="240.41"
   style="stroke-width:0.398" />
<path
   id="path3723"
   d="m 241.82,659.49 0.03,-0.01 0.03,-0.01 0.03,-0.02 0.03,-0.01 0.03,-0.01 0.03,0 0.03,-0.01 0.03,-0.01 0.02,-0.01 0.03,0 0.06,-0.02 0.05,0 0.06,-0.01 0.05,-0.01 0.05,0 0.05,0 0.05,-0.01 0.05,0 0.05,0 0.05,0 0.04,0 v 0.22 c -0.22,0 -0.34,0 -0.52,0.05 h 0 c 0.22,0.08 0.43,0.09 0.6,0.09 0.25,0 0.29,-0.01 0.47,-0.06 -0.15,-0.07 -0.17,-0.08 -0.55,-0.08 v -0.22 c 0.26,0 0.81,0 0.81,0.31 0,0.24 -0.35,0.27 -0.73,0.27 -0.21,0 -0.55,-0.02 -0.92,-0.19 -0.23,0.12 -0.4,0.31 -0.4,0.57 0,0.61 0.97,0.97 1.87,0.97 0.16,0 0.52,0 0.91,-0.28 0.11,-0.08 0.13,-0.1 0.2,-0.1 0.13,0 0.27,0.13 0.27,0.27 0,0.19 -0.61,0.56 -1.28,0.56 -1.14,0 -2.22,-0.66 -2.22,-1.42 0,-0.42 0.36,-0.67 0.4,-0.7 -0.59,-0.33 -0.91,-0.89 -0.91,-1.34 0,-0.65 0.57,-1.25 1.62,-1.25 1.32,0 1.87,0.87 1.87,1.02 0,0.06 -0.04,0.1 -0.11,0.1 -0.04,0 -0.07,-0.04 -0.09,-0.07 -0.14,-0.23 -0.38,-0.6 -1.58,-0.6 -0.6,0 -1.45,0.15 -1.45,0.86 0,0.33 0.28,0.86 0.89,1.16 z"
   inkscape:connector-curvature="0"
   style="fill:#000000;stroke-width:0" />
<path
   id="path3725"
   d="m 247.93,659.72 0,0.07 0,0.08 0,0.08 0,0.08 -0.01,0.17 -0.01,0.17 -0.02,0.18 -0.02,0.19 -0.03,0.2 -0.03,0.2 -0.04,0.2 -0.04,0.21 -0.06,0.21 -0.06,0.21 -0.07,0.21 -0.08,0.21 -0.04,0.11 -0.04,0.11 -0.05,0.1 -0.05,0.11 c -0.6,1.22 -1.46,1.86 -1.55,1.86 -0.06,0 -0.1,-0.03 -0.1,-0.09 0,-0.03 0,-0.05 0.19,-0.23 0.97,-0.99 1.54,-2.57 1.54,-4.64 0,-1.7 -0.37,-3.45 -1.6,-4.7 -0.13,-0.12 -0.13,-0.14 -0.13,-0.17 0,-0.06 0.04,-0.1 0.1,-0.1 0.09,0 0.99,0.68 1.58,1.94 0.51,1.09 0.62,2.19 0.62,3.03 z"
   inkscape:connector-curvature="0"
   style="fill:#000000;stroke-width:0" />
</g>  <g
     style="font-style:normal;font-variant:normal;font-weight:normal;font-stretch:normal;letter-spacing:normal;word-spacing:normal;text-anchor:start;fill:none;stroke:#000000;stroke-linecap:butt;stroke-linejoin:miter;stroke-miterlimit:10.43299961;stroke-opacity:1;stroke-dasharray:none;stroke-dashoffset:0"
     id="g3851"
     transform="matrix(1,0,0,-1,-195.30437,885.89709)"
     xml:space="preserve"
     stroke-miterlimit="10.433"
     font-style="normal"
     font-variant="normal"
     font-weight="normal"
     font-stretch="normal"
     font-size-adjust="none"
     letter-spacing="normal"
     word-spacing="normal"
     ns0:text="$\\overline{N^2}$"
     ns0:preamble="">
<line
   style="stroke-width:0.398"
   x1="223.42999"
   y1="666"
   x2="236.99001"
   y2="666"
   id="line3853" />
<path
   style="fill:#000000;stroke-width:0"
   inkscape:connector-curvature="0"
   d="m 230.95,662.98 0.02,0.07 0.01,0.04 0.02,0.03 0.01,0.04 0.01,0.03 0.02,0.03 0.01,0.04 0.02,0.03 0.02,0.03 0.02,0.03 0.02,0.03 0.02,0.02 0.02,0.03 0.03,0.03 0.03,0.02 0.03,0.03 0.03,0.02 0.04,0.02 0.03,0.02 0.04,0.02 0.05,0.02 0.04,0.01 0.05,0.02 0.05,0.01 0.05,0.02 0.06,0.01 0.06,0.01 0.06,0.01 0.07,0 0.07,0.01 0.03,0 0.04,0 c 0.05,0 0.17,0.01 0.17,0.2 0,0.01 0,0.11 -0.13,0.11 -0.33,0 -0.68,-0.03 -1.01,-0.03 -0.33,0 -0.68,0.03 -1.01,0.03 -0.06,0 -0.18,0 -0.18,-0.2 0,-0.11 0.1,-0.11 0.18,-0.11 0.57,-0.01 0.68,-0.22 0.68,-0.43 0,-0.04 -0.02,-0.18 -0.03,-0.21 l -1.12,-4.42 -2.2,5.18 c -0.08,0.18 -0.09,0.19 -0.32,0.19 h -1.33 c -0.2,0 -0.29,0 -0.29,-0.2 0,-0.11 0.09,-0.11 0.28,-0.11 0.05,0 0.68,0 0.68,-0.09 l -1.34,-5.33 c -0.1,-0.4 -0.27,-0.72 -1.07,-0.75 -0.06,0 -0.17,-0.01 -0.17,-0.2 0,-0.06 0.05,-0.11 0.13,-0.11 0.32,0 0.67,0.04 0.99,0.04 0.34,0 0.7,-0.04 1.03,-0.04 0.05,0 0.18,0 0.18,0.2 0,0.1 -0.09,0.11 -0.2,0.11 -0.58,0.02 -0.66,0.24 -0.66,0.44 0,0.07 0.01,0.12 0.04,0.23 l 1.32,5.24 c 0.03,-0.06 0.03,-0.08 0.09,-0.17 l 2.47,-5.86 c 0.07,-0.16 0.1,-0.19 0.19,-0.19 0.11,0 0.11,0.04 0.16,0.21 z"
   id="path3855" />
<path
   style="fill:#000000;stroke-width:0"
   inkscape:connector-curvature="0"
   d="m 236.04,661.38 h -0.24 c -0.02,-0.15 -0.09,-0.56 -0.18,-0.63 -0.05,-0.05 -0.59,-0.05 -0.69,-0.05 h -1.28 c 0.73,0.65 0.98,0.84 1.39,1.17 0.52,0.41 1,0.84 1,1.5 0,0.85 -0.74,1.36 -1.63,1.36 -0.86,0 -1.45,-0.61 -1.45,-1.25 0,-0.35 0.3,-0.38 0.37,-0.38 0.17,0 0.37,0.11 0.37,0.37 0,0.12 -0.05,0.36 -0.41,0.36 0.22,0.5 0.69,0.65 1.02,0.65 0.69,0 1.05,-0.54 1.05,-1.11 0,-0.6 -0.43,-1.08 -0.65,-1.33 l -1.68,-1.66 c -0.07,-0.06 -0.07,-0.07 -0.07,-0.27 h 2.87 z"
   id="path3857" />
</g>  <g
     style="font-style:normal;font-variant:normal;font-weight:normal;font-stretch:normal;letter-spacing:normal;word-spacing:normal;text-anchor:start;fill:none;stroke:#000000;stroke-linecap:butt;stroke-linejoin:miter;stroke-miterlimit:10.43299961;stroke-opacity:1;stroke-dasharray:none;stroke-dashoffset:0"
     ns0:preamble=""
     ns0:text="$log(K_\\rho^{cox}/\\kappa)$"
     text-anchor="start"
     word-spacing="normal"
     letter-spacing="normal"
     font-size-adjust="none"
     font-stretch="normal"
     font-weight="normal"
     font-variant="normal"
     font-style="normal"
     fill-opacity="1"
     fill-rule="evenodd"
     fill="none"
     stroke-opacity="1"
     stroke-dashoffset="0"
     stroke-dasharray="none"
     stroke-miterlimit="10.433"
     stroke-linejoin="miter"
     stroke-linecap="butt"
     stroke="black"
     xml:space="preserve"
     transform="matrix(1,0,0,-1,-205.52427,798.33738)"
     id="g102130">
<path
   id="path102132"
   fill="black"
   stroke-width="0"
   d="M226,664.02 L226,664.02 L226,664.02 L226,664.02 L226,664.03 L226,664.03 L226,664.03 L226,664.03 L226,664.04 L226,664.04 L226,664.05 L226,664.05 L225.99,664.05 L225.99,664.06 L225.99,664.06 L225.99,664.07 L225.99,664.07 L225.98,664.08 L225.98,664.08 L225.98,664.09 L225.97,664.09 L225.97,664.1 L225.97,664.1 L225.96,664.1 L225.96,664.1 L225.96,664.11 L225.95,664.11 L225.95,664.11 L225.95,664.11 L225.94,664.11 L225.94,664.12 L225.94,664.12 L225.93,664.12 L225.93,664.12 L225.93,664.12 L225.92,664.12 L225.92,664.12 L225.91,664.12 L225.91,664.13 L225.9,664.13 L225.9,664.13 L225.89,664.13 L225.89,664.13 L225.88,664.13 L225.88,664.13 L225.87,664.13 C225.64,664.13,224.91,664.05,224.66,664.03 C224.58,664.02,224.47,664.01,224.47,663.82 C224.47,663.71,224.57,663.71,224.71,663.71 C225.19,663.71,225.2,663.62,225.2,663.54 L225.17,663.34 L223.92,658.38 C223.89,658.27,223.87,658.2,223.87,658.04 C223.87,657.47,224.31,657.13,224.77,657.13 C225.1,657.13,225.35,657.32,225.52,657.68 C225.7,658.06,225.82,658.64,225.82,658.66 C225.82,658.76,225.73,658.76,225.7,658.76 C225.6,658.76,225.59,658.72,225.56,658.58 C225.39,657.93,225.2,657.34,224.8,657.34 C224.51,657.34,224.51,657.66,224.51,657.8 C224.51,658.04,224.52,658.09,224.57,658.28 Z " />
<path
   id="path102134"
   fill="black"
   stroke-width="0"
   d="M231.27,659.95 L231.27,660.04 L231.26,660.14 L231.25,660.23 L231.24,660.32 L231.22,660.4 L231.2,660.49 L231.18,660.57 L231.15,660.65 L231.12,660.72 L231.08,660.79 L231.04,660.86 L231,660.93 L230.96,661 L230.91,661.06 L230.86,661.12 L230.81,661.17 L230.76,661.23 L230.7,661.28 L230.64,661.32 L230.58,661.37 L230.51,661.41 L230.44,661.44 L230.38,661.48 L230.3,661.51 L230.23,661.54 L230.16,661.56 L230.08,661.58 L230,661.6 L229.92,661.61 L229.84,661.62 L229.76,661.62 L229.68,661.63 C228.35,661.63,227.01,660.22,227.01,658.8 C227.01,657.82,227.68,657.13,228.6,657.13 L228.61,657.34 C228.19,657.34,227.75,657.65,227.75,658.43 C227.75,658.91,228.01,659.99,228.32,660.49 C228.82,661.26,229.39,661.41,229.67,661.41 C230.24,661.41,230.54,660.93,230.54,660.33 C230.54,659.95,230.35,658.9,229.97,658.26 C229.62,657.68,229.07,657.34,228.61,657.34 H228.61 L228.6,657.13 C229.93,657.13,231.27,658.5,231.27,659.95 Z " />
<path
   id="path102136"
   fill="black"
   stroke-width="0"
   d="M236.12,660.98 L236.12,660.99 L236.12,661 L236.13,661.01 L236.13,661.02 L236.13,661.04 L236.14,661.06 L236.14,661.07 L236.14,661.08 L236.14,661.09 L236.14,661.1 L236.15,661.11 L236.15,661.12 L236.15,661.13 L236.15,661.13 L236.15,661.14 L236.15,661.15 L236.15,661.15 L236.15,661.16 C236.15,661.33,236.03,661.43,235.86,661.43 C235.76,661.43,235.49,661.36,235.45,661 C235.27,661.37,234.93,661.63,234.53,661.63 L234.54,661.41 C235.19,661.41,235.33,660.6,235.33,660.55 C235.33,660.5,235.31,660.44,235.3,660.4 L234.83,658.51 C234.77,658.25,234.54,658,234.32,657.81 C234.11,657.63,233.8,657.45,233.51,657.45 C233.01,657.45,232.87,657.97,232.87,658.37 C232.87,658.84,233.15,660.02,233.42,660.52 C233.69,661.01,234.12,661.41,234.54,661.41 L234.53,661.63 C233.39,661.63,232.16,660.23,232.16,658.8 C232.16,657.82,232.77,657.23,233.48,657.23 C234.07,657.23,234.54,657.7,234.64,657.81 L234.65,657.8 C234.44,656.92,234.32,656.51,234.32,656.49 C234.28,656.4,233.94,655.42,232.88,655.42 C232.7,655.42,232.37,655.43,232.09,655.52 C232.39,655.61,232.5,655.86,232.5,656.03 C232.5,656.19,232.39,656.38,232.12,656.38 C231.9,656.38,231.58,656.2,231.58,655.8 C231.58,655.4,231.95,655.2,232.9,655.2 C234.15,655.2,234.87,655.97,235.01,656.57 Z " />
<path
   id="path102138"
   fill="black"
   stroke-width="0"
   d="M239.83,654.85 L239.83,654.86 L239.83,654.86 L239.83,654.86 L239.83,654.87 L239.83,654.87 L239.83,654.87 L239.83,654.88 L239.83,654.88 L239.83,654.88 L239.82,654.89 L239.82,654.89 L239.82,654.9 L239.81,654.9 L239.81,654.91 L239.81,654.91 L239.8,654.92 L239.8,654.93 L239.79,654.93 L239.79,654.94 L239.78,654.94 L239.78,654.95 L239.78,654.95 L239.77,654.95 L239.77,654.96 L239.77,654.96 L239.76,654.97 L239.76,654.97 L239.75,654.98 L239.75,654.98 L239.74,654.99 L239.74,654.99 L239.73,655 L239.72,655.01 L239.72,655.01 L239.71,655.02 L239.71,655.03 L239.7,655.03 L239.69,655.04 L239.69,655.05 L239.68,655.05 L239.67,655.06 L239.66,655.07 C238.42,656.32,238.1,658.2,238.1,659.72 C238.1,661.45,238.48,663.17,239.7,664.42 C239.83,664.54,239.83,664.56,239.83,664.59 C239.83,664.66,239.79,664.68,239.73,664.68 C239.63,664.68,238.74,664.01,238.15,662.75 C237.64,661.66,237.52,660.55,237.52,659.72 C237.52,658.94,237.63,657.74,238.18,656.62 C238.78,655.4,239.63,654.75,239.73,654.75 C239.79,654.75,239.83,654.78,239.83,654.85 Z " />
<path
   id="path102140"
   fill="black"
   stroke-width="0"
   d="M245.48,661.25 L245.48,661.25 L245.48,661.25 L245.47,661.26 L245.47,661.26 L245.47,661.27 L245.47,661.27 L245.47,661.27 L245.47,661.28 L245.46,661.28 L245.46,661.29 L245.46,661.29 L245.46,661.3 L245.45,661.31 L245.45,661.32 L245.45,661.33 L245.44,661.33 L245.44,661.34 L245.44,661.34 L245.44,661.35 L245.44,661.35 L245.43,661.36 L245.43,661.36 L245.43,661.37 L245.43,661.37 L245.43,661.37 L245.43,661.38 L245.43,661.38 L245.43,661.38 L245.43,661.39 C245.43,661.4,245.61,661.54,245.72,661.62 L247.46,662.96 C248.39,663.64,248.78,663.68,249.08,663.71 C249.16,663.72,249.26,663.73,249.26,663.91 C249.26,663.95,249.23,664.02,249.15,664.02 C248.93,664.02,248.68,663.99,248.44,663.99 C248.09,663.99,247.7,664.02,247.34,664.02 C247.27,664.02,247.15,664.02,247.15,663.82 C247.15,663.75,247.2,663.72,247.27,663.71 C247.49,663.69,247.58,663.64,247.58,663.5 C247.58,663.32,247.28,663.1,247.22,663.05 L243.34,660.07 L244.13,663.26 C244.23,663.61,244.24,663.71,244.97,663.71 C245.22,663.71,245.31,663.71,245.31,663.91 C245.31,664,245.23,664.02,245.17,664.02 C244.89,664.02,244.18,663.99,243.9,663.99 C243.61,663.99,242.9,664.02,242.61,664.02 C242.54,664.02,242.41,664.02,242.41,663.83 C242.41,663.71,242.5,663.71,242.7,663.71 C242.83,663.71,243.01,663.7,243.13,663.69 C243.29,663.67,243.35,663.64,243.35,663.53 C243.35,663.49,243.34,663.46,243.31,663.34 L241.98,658.01 C241.88,657.62,241.86,657.54,241.07,657.54 C240.9,657.54,240.79,657.54,240.79,657.35 C240.79,657.23,240.91,657.23,240.94,657.23 C241.22,657.23,241.93,657.27,242.21,657.27 C242.41,657.27,242.63,657.26,242.84,657.26 C243.06,657.26,243.28,657.23,243.49,657.23 C243.56,657.23,243.69,657.23,243.69,657.43 C243.69,657.54,243.6,657.54,243.41,657.54 C243.04,657.54,242.76,657.54,242.76,657.72 C242.76,657.79,242.82,658.01,242.85,658.16 C242.99,658.67,243.12,659.2,243.25,659.72 L244.73,660.87 L245.89,658.2 C246.01,657.93,246.01,657.91,246.01,657.85 C246.01,657.55,245.58,657.54,245.49,657.54 C245.38,657.54,245.27,657.54,245.27,657.34 C245.27,657.23,245.39,657.23,245.41,657.23 C245.81,657.23,246.22,657.27,246.62,657.27 C246.84,657.27,247.38,657.23,247.6,657.23 C247.65,657.23,247.78,657.23,247.78,657.43 C247.78,657.54,247.67,657.54,247.58,657.54 C247.17,657.55,247.04,657.64,246.89,657.99 Z " />
<path
   id="path102142"
   fill="black"
   stroke-width="0"
   d="M252.64,663.51 L252.61,663.51 L252.59,663.5 L252.57,663.5 L252.55,663.49 L252.53,663.48 L252.51,663.48 L252.49,663.47 L252.48,663.46 L252.46,663.45 L252.44,663.44 L252.43,663.43 L252.42,663.41 L252.4,663.4 L252.39,663.39 L252.38,663.38 L252.37,663.36 L252.36,663.35 L252.35,663.33 L252.34,663.32 L252.33,663.3 L252.32,663.29 L252.31,663.27 L252.31,663.26 L252.3,663.24 L252.3,663.23 L252.29,663.21 L252.29,663.2 L252.29,663.18 L252.29,663.17 L252.28,663.15 L252.28,663.14 L252.28,663.12 C252.28,662.94,252.43,662.87,252.55,662.87 C252.71,662.87,252.95,662.98,252.95,663.31 C252.95,663.79,252.41,663.92,252.03,663.92 C250.99,663.92,250.02,662.96,250.02,661.99 C250.02,661.39,250.44,660.78,251.31,660.78 C252.49,660.78,253.04,661.47,253.04,661.57 C253.04,661.61,252.97,661.68,252.92,661.68 C252.88,661.68,252.86,661.67,252.81,661.62 C252.26,660.98,251.45,660.98,251.32,660.98 C250.82,660.98,250.6,661.32,250.6,661.75 C250.6,661.95,250.7,662.71,251.06,663.19 C251.32,663.53,251.68,663.72,252.03,663.72 C252.13,663.72,252.46,663.71,252.64,663.51 Z " />
<path
   id="path102144"
   fill="black"
   stroke-width="0"
   d="M256.85,662.7 L256.84,662.77 L256.84,662.84 L256.83,662.91 L256.82,662.97 L256.81,663.04 L256.79,663.1 L256.77,663.16 L256.75,663.22 L256.72,663.27 L256.69,663.33 L256.66,663.38 L256.63,663.43 L256.59,663.47 L256.55,663.52 L256.51,663.56 L256.47,663.6 L256.43,663.64 L256.38,663.67 L256.33,663.71 L256.28,663.74 L256.23,663.77 L256.18,663.79 L256.13,663.82 L256.07,663.84 L256.01,663.86 L255.96,663.87 L255.9,663.89 L255.84,663.9 L255.77,663.91 L255.71,663.91 L255.65,663.92 L255.59,663.92 L255.58,663.72 C255.96,663.72,256.27,663.47,256.27,662.95 C256.27,662.78,256.19,662.1,255.88,661.61 C255.62,661.2,255.2,660.98,254.85,660.98 H254.85 C254.51,660.98,254.16,661.2,254.16,661.75 C254.16,662.03,254.29,662.72,254.56,663.11 C254.86,663.54,255.26,663.72,255.58,663.72 L255.59,663.92 C254.55,663.92,253.58,662.95,253.58,662 C253.58,661.3,254.09,660.78,254.85,660.78 C255.84,660.78,256.85,661.7,256.85,662.7 Z " />
<path
   id="path102146"
   fill="black"
   stroke-width="0"
   d="M258.82,661.59 L258.81,661.57 L258.8,661.54 L258.79,661.52 L258.78,661.49 L258.77,661.47 L258.76,661.44 L258.75,661.42 L258.73,661.39 L258.72,661.37 L258.7,661.34 L258.69,661.32 L258.67,661.29 L258.65,661.27 L258.63,661.24 L258.61,661.22 L258.59,661.19 L258.57,661.17 L258.55,661.15 L258.53,661.13 L258.5,661.11 L258.48,661.09 L258.46,661.07 L258.43,661.05 L258.4,661.04 L258.37,661.02 L258.35,661.01 L258.32,661 L258.29,660.99 L258.26,660.99 L258.23,660.98 L258.19,660.98 L258.16,660.98 C258.14,660.98,257.93,660.98,257.78,661.07 C258.07,661.16,258.09,661.41,258.09,661.46 C258.09,661.61,257.97,661.71,257.81,661.71 C257.62,661.71,257.42,661.55,257.42,661.29 C257.42,660.94,257.8,660.78,258.15,660.78 C258.47,660.78,258.75,660.98,258.93,661.28 C259.09,660.91,259.48,660.78,259.76,660.78 C260.56,660.78,260.98,661.65,260.98,661.84 C260.98,661.94,260.89,661.94,260.87,661.94 C260.77,661.94,260.77,661.9,260.74,661.82 C260.59,661.34,260.17,660.98,259.78,660.98 C259.5,660.98,259.36,661.16,259.36,661.43 C259.36,661.61,259.52,662.24,259.72,663.01 C259.86,663.55,260.17,663.72,260.4,663.72 C260.42,663.72,260.63,663.72,260.78,663.63 C260.56,663.56,260.47,663.37,260.47,663.24 C260.47,663.09,260.59,662.99,260.75,662.99 C260.91,662.99,261.14,663.12,261.14,663.41 C261.14,663.8,260.7,663.92,260.42,663.92 C260.07,663.92,259.79,663.69,259.64,663.42 C259.51,663.71,259.19,663.92,258.8,663.92 C258.02,663.92,257.58,663.06,257.58,662.85 C257.58,662.76,257.67,662.76,257.69,662.76 C257.78,662.76,257.79,662.79,257.83,662.88 C258,663.42,258.44,663.72,258.78,663.72 C259.01,663.72,259.2,663.6,259.2,663.26 C259.2,663.12,259.11,662.78,259.05,662.54 Z " />
<path
   id="path102148"
   fill="black"
   stroke-width="0"
   d="M249.25,653.65 L249.25,653.64 L249.25,653.63 L249.24,653.63 L249.24,653.62 L249.24,653.61 L249.24,653.6 L249.24,653.59 L249.23,653.59 L249.23,653.58 L249.23,653.57 L249.23,653.57 L249.23,653.56 L249.23,653.56 L249.23,653.55 L249.23,653.55 L249.23,653.54 L249.23,653.54 L249.23,653.53 L249.22,653.53 L249.22,653.53 L249.22,653.52 L249.22,653.52 L249.22,653.52 L249.22,653.52 L249.22,653.52 L249.22,653.51 L249.22,653.51 L249.22,653.51 L249.22,653.51 L249.22,653.51 L249.22,653.51 L249.22,653.51 C249.22,653.35,249.35,653.28,249.46,653.28 C249.71,653.28,249.77,653.49,249.82,653.72 C249.91,654.08,250.11,654.87,250.18,655.13 C250.24,655.03,250.46,654.7,250.94,654.7 L250.94,654.9 C250.42,654.9,250.27,655.41,250.27,655.5 C250.27,655.52,250.31,655.67,250.33,655.75 C250.54,656.61,250.58,656.77,250.78,657.07 C251.03,657.44,251.38,657.64,251.66,657.64 C251.95,657.64,252.22,657.44,252.22,656.94 C252.22,656.62,252.04,655.85,251.82,655.5 C251.5,655.01,251.15,654.9,250.94,654.9 H250.94 L250.94,654.7 C251.84,654.7,252.78,655.65,252.78,656.66 C252.78,657.4,252.29,657.84,251.68,657.84 C250.99,657.84,250.15,657.24,249.91,656.26 Z " />
<path
   id="path102150"
   fill="black"
   stroke-width="0"
   d="M266.46,664.31 L266.47,664.31 L266.47,664.32 L266.47,664.33 L266.47,664.33 L266.47,664.34 L266.48,664.34 L266.48,664.35 L266.48,664.36 L266.49,664.37 L266.49,664.38 L266.49,664.39 L266.5,664.4 L266.5,664.4 L266.5,664.41 L266.5,664.42 L266.5,664.43 L266.51,664.43 L266.51,664.44 L266.51,664.44 L266.51,664.45 L266.51,664.45 L266.51,664.46 L266.51,664.46 L266.51,664.46 L266.51,664.47 L266.51,664.47 L266.51,664.47 L266.51,664.48 L266.51,664.48 L266.51,664.48 L266.51,664.48 L266.51,664.48 L266.51,664.48 L266.51,664.49 L266.51,664.49 C266.51,664.6,266.42,664.68,266.32,664.68 C266.24,664.68,266.17,664.66,266.14,664.6 L262.69,655.13 C262.64,655,262.64,654.96,262.64,654.95 C262.64,654.84,262.73,654.75,262.84,654.75 C262.97,654.75,263,654.82,263.06,654.99 Z " />
<path
   id="path102152"
   fill="black"
   stroke-width="0"
   d="M267.66,657.62 L267.66,657.62 L267.66,657.61 L267.66,657.6 L267.66,657.6 L267.65,657.59 L267.65,657.58 L267.65,657.56 L267.65,657.56 L267.64,657.55 L267.64,657.54 L267.64,657.53 L267.64,657.52 L267.64,657.51 L267.63,657.51 L267.63,657.5 L267.63,657.49 L267.63,657.49 L267.63,657.48 L267.63,657.48 L267.63,657.47 L267.63,657.46 L267.63,657.45 L267.62,657.44 L267.62,657.43 L267.62,657.42 L267.62,657.42 L267.62,657.41 L267.62,657.41 L267.62,657.4 L267.62,657.39 C267.62,657.22,267.76,657.13,267.91,657.13 C268.21,657.13,268.27,657.36,268.35,657.68 C268.45,658.04,268.39,657.85,268.82,659.52 C269.65,659.49,270.52,659.32,270.52,658.68 C270.52,658.61,270.52,658.56,270.5,658.46 C270.46,658.3,270.45,658.19,270.45,658.11 C270.45,657.52,270.85,657.13,271.36,657.13 C271.68,657.13,271.94,657.3,272.14,657.64 C272.39,658.06,272.51,658.64,272.51,658.66 C272.51,658.76,272.42,658.76,272.39,658.76 C272.29,658.76,272.28,658.72,272.25,658.58 C272.06,657.89,271.83,657.34,271.39,657.34 C271.18,657.34,271.07,657.47,271.07,657.82 C271.07,657.97,271.11,658.21,271.15,658.38 C271.17,658.47,271.2,658.6,271.2,658.71 C271.2,659.64,269.82,659.71,269.27,659.73 C269.59,659.91,269.91,660.18,270.18,660.4 C270.64,660.79,270.93,661.03,271.33,661.2 C271.31,661.15,271.28,661.03,271.28,660.98 C271.28,660.86,271.35,660.63,271.65,660.63 C271.97,660.63,272.19,660.92,272.19,661.17 C272.19,661.26,272.15,661.52,271.79,661.52 C271.19,661.52,270.6,661.02,270.16,660.65 C269.48,660.08,269.25,659.93,268.89,659.81 C268.92,659.92,269.04,660.41,269.09,660.58 C269.15,660.84,269.27,661.31,269.27,661.36 C269.27,661.53,269.15,661.63,268.98,661.63 C268.95,661.63,268.67,661.63,268.58,661.27 Z " />
<path
   id="path102154"
   fill="black"
   stroke-width="0"
   d="M275.69,659.72 L275.69,659.79 L275.69,659.87 L275.69,659.95 L275.69,660.03 L275.68,660.2 L275.67,660.37 L275.65,660.55 L275.63,660.74 L275.6,660.94 L275.57,661.14 L275.53,661.34 L275.48,661.55 L275.43,661.76 L275.37,661.97 L275.3,662.18 L275.22,662.39 L275.18,662.5 L275.13,662.61 L275.09,662.71 L275.04,662.82 C274.44,664.04,273.58,664.68,273.48,664.68 C273.42,664.68,273.39,664.65,273.39,664.59 C273.39,664.56,273.39,664.54,273.57,664.36 C274.55,663.37,275.12,661.79,275.12,659.72 C275.12,658.02,274.75,656.27,273.51,655.02 C273.39,654.9,273.39,654.88,273.39,654.85 C273.39,654.79,273.42,654.75,273.48,654.75 C273.58,654.75,274.48,655.43,275.07,656.69 C275.57,657.78,275.69,658.88,275.69,659.72 Z " />
</g></svg>
